<?xml version="1.0" encoding="UTF-8" standalone="no"?>
<!DOCTYPE svg PUBLIC "-//W3C//DTD SVG 1.1//EN" "http://www.w3.org/Graphics/SVG/1.1/DTD/svg11.dtd">
<svg width="100%" height="100%" viewBox="0 0 167 167" version="1.1" xmlns="http://www.w3.org/2000/svg" xmlns:xlink="http://www.w3.org/1999/xlink" xml:space="preserve" xmlns:serif="http://www.serif.com/" style="fill-rule:evenodd;clip-rule:evenodd;stroke-linejoin:round;stroke-miterlimit:2;">
    <g id="ArtBoard1" transform="matrix(0.9623,0,0,0.973011,0,0)">
        <rect x="0" y="0" width="172.711" height="170.81" style="fill:none;"/>
        <clipPath id="_clip1">
            <rect x="0" y="0" width="172.711" height="170.81"/>
        </clipPath>
        <g clip-path="url(#_clip1)">
            <g id="g20" transform="matrix(2.32277,0,0,2.2972,12.5715,369.372)">
                <g id="path883" transform="matrix(1,0,0,1,-150.711,-50.8627)">
                    <circle cx="182.484" cy="-72.744" r="37.185" style="fill:rgb(88,101,242);"/>
                </g>
                <g id="path2-3" transform="matrix(1,0,0,1,-150.711,-50.8627)">
                    <path d="M199.302,-86.719C196.274,-88.103 193.058,-89.113 189.702,-89.676C189.278,-88.949 188.811,-87.962 188.483,-87.188C184.914,-87.705 181.369,-87.705 177.849,-87.188C177.521,-87.962 177.025,-88.949 176.63,-89.676C173.251,-89.113 170.035,-88.105 167.028,-86.719C160.949,-77.753 159.306,-68.998 160.127,-60.36C164.165,-57.426 168.061,-55.643 171.89,-54.469C172.83,-55.736 173.674,-57.098 174.401,-58.529C173.017,-59.046 171.702,-59.68 170.435,-60.431C170.762,-60.664 171.089,-60.924 171.398,-61.181C179.05,-57.684 187.338,-57.684 194.896,-61.181C195.223,-60.922 195.532,-60.664 195.86,-60.431C194.595,-59.68 193.278,-59.046 191.893,-58.529C192.62,-57.098 193.465,-55.736 194.405,-54.469C198.231,-55.643 202.15,-57.426 206.167,-60.36C207.177,-70.359 204.567,-79.043 199.31,-86.719L199.302,-86.719ZM175.452,-65.688C173.151,-65.688 171.274,-67.777 171.274,-70.336C171.274,-72.894 173.105,-74.983 175.452,-74.983C177.774,-74.983 179.677,-72.895 179.63,-70.336C179.63,-67.777 177.775,-65.688 175.452,-65.688ZM190.875,-65.688C188.576,-65.688 186.695,-67.777 186.695,-70.336C186.695,-72.894 188.529,-74.983 190.875,-74.983C193.197,-74.983 195.1,-72.895 195.053,-70.336C195.053,-67.777 193.222,-65.688 190.875,-65.688Z" style="fill:rgb(88,79,242);fill-rule:nonzero;"/>
                </g>
                <g id="path2-3-5" transform="matrix(1,0,0,1,-150.711,-50.8627)">
                    <path d="M198.682,-87.339C195.654,-88.723 192.438,-89.733 189.082,-90.296C188.658,-89.569 188.191,-88.582 187.864,-87.808C184.294,-88.325 180.749,-88.325 177.229,-87.808C176.901,-88.582 176.405,-89.569 176.011,-90.296C172.631,-89.732 169.415,-88.725 166.409,-87.339C160.329,-78.372 158.686,-69.618 159.508,-60.98C163.545,-58.046 167.442,-56.262 171.27,-55.089C172.21,-56.356 173.054,-57.718 173.781,-59.149C172.397,-59.666 171.082,-60.3 169.815,-61.051C170.142,-61.284 170.469,-61.544 170.778,-61.801C178.43,-58.304 186.718,-58.304 194.276,-61.801C194.603,-61.541 194.912,-61.284 195.24,-61.051C193.975,-60.3 192.658,-59.666 191.273,-59.149C192.001,-57.718 192.845,-56.356 193.785,-55.089C197.611,-56.263 201.531,-58.046 205.547,-60.98C206.557,-70.979 203.947,-79.663 198.69,-87.339L198.682,-87.339ZM174.832,-66.308C172.531,-66.308 170.654,-68.396 170.654,-70.956C170.654,-73.514 172.485,-75.603 174.832,-75.603C177.154,-75.603 179.057,-73.515 179.01,-70.956C179.01,-68.397 177.155,-66.308 174.832,-66.308ZM190.255,-66.308C187.957,-66.308 186.075,-68.396 186.075,-70.956C186.075,-73.514 187.909,-75.603 190.255,-75.603C192.577,-75.603 194.48,-73.515 194.433,-70.956C194.433,-68.397 192.602,-66.308 190.255,-66.308Z" style="fill:white;fill-rule:nonzero;"/>
                </g>
            </g>
        </g>
    </g>
</svg>
